<svg width="64" height="64" fill="none" xmlns="http://www.w3.org/2000/svg"><path d="M58.937 6.074L6.867 58.37M2 37.394C4.239 50.76 14.847 61.2 28.278 63.151M40.64 2.073A30.321 30.321 0 0 0 32.657 1c-3.114 0-6.131.488-8.954 1.366M62.83 24.417a30.166 30.166 0 0 0-2.53-6.635" stroke="#ADC9D5" stroke-miterlimit="10"/><path d="M4.24 29.296l4.087-4.098 4.185 4.098" stroke="#5C8394" stroke-miterlimit="10"/><path d="M8.619 25.978c-2.141 8.294 0 17.465 6.52 23.905 6.522 6.44 15.573 8.684 23.846 6.537" stroke="#5C8394" stroke-miterlimit="10" stroke-linecap="square"/><path d="M61.176 35.15l-4.088 4.098-4.185-4.098" stroke="#5C8394" stroke-miterlimit="10"/><path d="M56.796 38.467c2.141-8.293-.097-17.367-6.521-23.905C43.85 8.025 34.703 5.88 26.43 8.025" stroke="#5C8394" stroke-miterlimit="10" stroke-linecap="square"/><path d="M53.244 17.534V11.68h-5.84v5.854h5.84z" fill="#F17179"/><path d="M51.221 32.222c0 10.228-8.27 18.514-18.465 18.514-10.196 0-18.466-8.286-18.466-18.514 0-10.227 8.27-18.514 18.466-18.514 10.195 0 18.465 8.287 18.465 18.514z" fill="#fff" stroke="#ADC9D5" stroke-width="2"/><path d="M32.756 13.782c2.14.976 12.652 6.537 12.652 18.44 0 11.806-10.511 17.466-12.652 18.441-2.142-.975-12.653-6.634-12.653-18.44 0-11.806 10.511-17.465 12.653-18.441zm0-1.073S19.13 18.27 19.13 32.222c0 13.953 13.626 19.514 13.626 19.514s13.626-5.56 13.626-19.514c0-13.952-13.626-19.514-13.626-19.514z" fill="#ADC9D5"/><path d="M32.756 14.66c1.557 2.83 4.866 9.66 4.866 17.562 0 7.904-3.31 14.831-4.866 17.563-1.558-2.83-4.867-9.66-4.867-17.563 0-7.903 3.212-14.83 4.867-17.562zm0-1.951s-5.84 8.78-5.84 19.513c0 10.733 5.84 19.514 5.84 19.514s5.84-8.78 5.84-19.514c0-10.732-5.84-19.514-5.84-19.514z" fill="#ADC9D5"/><path d="M44.338 16.61c-.292-.194-.584-.39-.779-.585-3.017 2.245-6.813 3.513-10.803 3.513-3.99 0-7.786-1.366-10.804-3.513-.292.196-.584.39-.778.586 3.212 2.44 7.3 3.903 11.68 3.903 4.379 0 8.272-1.464 11.484-3.903zM21.076 47.833c.292.196.584.39.779.586 3.017-2.244 6.813-3.513 10.803-3.513 3.99 0 7.786 1.366 10.803 3.513.293-.195.584-.39.78-.586-3.213-2.439-7.3-3.902-11.68-3.902s-8.273 1.463-11.485 3.902zM32.755 25.392c-6.034 0-11.679-1.268-16.448-3.512-.195.292-.39.585-.487.878 4.964 2.341 10.804 3.707 17.033 3.707 6.229 0 12.068-1.366 17.032-3.707-.195-.293-.292-.586-.487-.878a41.013 41.013 0 0 1-16.643 3.512zM15.724 41.784c.194.293.292.585.486.878 4.77-2.244 10.414-3.512 16.449-3.512 6.034 0 11.679 1.268 16.448 3.512.195-.293.39-.585.487-.878-4.964-2.342-10.804-3.708-17.033-3.708-6.229 0-11.874 1.366-16.837 3.708z" fill="#ADC9D5"/><path d="M52.221 32.222H13.29" stroke="#ADC9D5" stroke-miterlimit="10"/></svg>